<svg xmlns="http://www.w3.org/2000/svg"
   xmlns:xlink="http://www.w3.org/1999/xlink"
   version="1.1"
   id="Page 1" width="100%" height="100%"  viewBox="-6 -6 742 534">
<desc>
XCircuit Version 3.7
File "(null)" Page 1
</desc>
<g stroke="black">
<path d="M288,128 L288,528 560,528 560,128 z" fill="none" stroke-width="2" stroke-linejoin="bevel" stroke-linecap="round" stroke="#000000" />
<g transform="matrix(-1.16895e-11   -1    1 -1.16895e-11 432 432)" fill="#000000" >
<text stroke="none" font-family="Helvetica" font-size="40" ><tspan x="0" y="0">Arduino UNO</tspan>
</text></g>
<g transform="matrix( 0.6    0   -0  0.6 496 224)" fill="#000000" >
<text stroke="none" font-family="Helvetica" font-size="40" ><tspan x="0" y="0">GND</tspan>
</text></g>
<g transform="matrix( 0.6    0   -0  0.6 512 304)" fill="#000000" >
<text stroke="none" font-family="Helvetica" font-size="40" ><tspan x="0" y="0">A9</tspan>
</text></g>
<g transform="matrix( 0.6    0   -0  0.6 304 192)" fill="#000000" >
<text stroke="none" font-family="Helvetica" font-size="40" ><tspan x="0" y="0">5V</tspan>
</text></g>
<g transform="matrix( 0.6    0   -0  0.6 304 272)" fill="#000000" >
<text stroke="none" font-family="Helvetica" font-size="40" ><tspan x="0" y="0">GND</tspan>
</text></g>
<g transform="matrix( 0.6    0   -0  0.6 304 368)" fill="#000000" >
<text stroke="none" font-family="Helvetica" font-size="40" ><tspan x="0" y="0">A0</tspan>
</text></g>
<g transform="matrix( 0.6    0   -0  0.6 304 448)" fill="#000000" >
<text stroke="none" font-family="Helvetica" font-size="40" ><tspan x="0" y="0">A1</tspan>
</text></g>
<path d="M672,218 L672,234 " fill="none" stroke-width="1.2" stroke-linejoin="bevel" stroke-linecap="round" stroke="#000000" />
<path d="M672,294 L672,278 " fill="none" stroke-width="1.2" stroke-linejoin="bevel" stroke-linecap="round" stroke="#000000" />
<path d="M672,278 L680,274 664,267 680,260 664,252 680,245 664,238 672,234 " fill="none" stroke-width="1.2" stroke-linejoin="bevel" stroke-linecap="round" stroke="#000000" />
<path d="M176,186 L176,202 " fill="none" stroke-width="1.2" stroke-linejoin="bevel" stroke-linecap="round" stroke="#000000" />
<path d="M176,262 L176,246 " fill="none" stroke-width="1.2" stroke-linejoin="bevel" stroke-linecap="round" stroke="#000000" />
<path d="M176,246 L184,242 168,235 184,228 168,220 184,213 168,206 176,202 " fill="none" stroke-width="1.2" stroke-linejoin="bevel" stroke-linecap="round" stroke="#000000" />
<path d="M64,154 L64,170 " fill="none" stroke-width="1.2" stroke-linejoin="bevel" stroke-linecap="round" stroke="#000000" />
<path d="M64,230 L64,214 " fill="none" stroke-width="1.2" stroke-linejoin="bevel" stroke-linecap="round" stroke="#000000" />
<path d="M64,214 L72,210 56,203 72,196 56,188 72,181 56,174 64,170 " fill="none" stroke-width="1.2" stroke-linejoin="bevel" stroke-linecap="round" stroke="#000000" />
<path d="M728,256 L692,256 " fill="none" stroke-width="0.96" stroke-linejoin="bevel" stroke-linecap="round" stroke="#000000" />
<path d="M697,251 C691,254 689,254 680,256 C689,258 691,258 697,261 C696,257 696,255 697,251 " fill="#000000" stroke="none" />
<path d="M8,192 L44,192 " fill="none" stroke-width="0.96" stroke-linejoin="bevel" stroke-linecap="round" stroke="#000000" />
<path d="M39,187 C45,190 47,190 56,192 C47,194 45,194 39,197 C40,193 40,191 39,187 " fill="#000000" stroke="none" />
<path d="M120,224 L156,224 " fill="none" stroke-width="0.96" stroke-linejoin="bevel" stroke-linecap="round" stroke="#000000" />
<path d="M151,229 C157,226 159,226 168,224 C159,222 157,222 151,219 C152,223 152,225 151,229 " fill="#000000" stroke="none" />
<path d="M560,208 L672,208 672,224 " fill="none" stroke-width="2" stroke-linejoin="bevel" stroke-linecap="round" stroke="#000000" />
<path d="M560,304 L672,304 672,288 " fill="none" stroke-width="2" stroke-linejoin="bevel" stroke-linecap="round" stroke="#000000" />
<path d="M720,256 L736,256 736,112 672,112 672,80 " fill="none" stroke-width="2" stroke-linejoin="bevel" stroke-linecap="round" stroke="#000000" />
<path d="M624,80 L624,208 " fill="none" stroke-width="2" stroke-linejoin="bevel" stroke-linecap="round" stroke="#000000" />
<path d="M608,80 L688,80 688,48 608,48 608,80 " fill="none" stroke-width="2" stroke-linejoin="bevel" stroke-linecap="round" stroke="#000000" />
<path d="M608,48 L576,0 720,0 688,48 " fill="none" stroke-width="2" stroke-linejoin="bevel" stroke-linecap="round" stroke="#000000" />
<path d="M176,176 L288,176 " fill="none" stroke-width="2" stroke-linejoin="bevel" stroke-linecap="round" stroke="#000000" />
<path d="M176,176 L176,192 " fill="none" stroke-width="2" stroke-linejoin="bevel" stroke-linecap="round" stroke="#000000" />
<path d="M176,256 L176,272 288,272 " fill="none" stroke-width="2" stroke-linejoin="bevel" stroke-linecap="round" stroke="#000000" />
<path d="M128,224 L112,224 112,368 288,368 " fill="none" stroke-width="2" stroke-linejoin="bevel" stroke-linecap="round" stroke="#000000" />
<path d="M16,192 L0,192 0,448 288,448 " fill="none" stroke-width="2" stroke-linejoin="bevel" stroke-linecap="round" stroke="#000000" />
<path d="M64,160 L64,144 240,144 240,176 " fill="none" stroke-width="2" stroke-linejoin="bevel" stroke-linecap="round" stroke="#000000" />
<path d="M64,224 L64,304 240,304 240,272 " fill="none" stroke-width="2" stroke-linejoin="bevel" stroke-linecap="round" stroke="#000000" />
<ellipse cx="240" cy="176" rx="6" ry="6" fill="#000000" stroke="none" />
<ellipse cx="240" cy="272" rx="6" ry="6" fill="#000000" stroke="none" />
<ellipse cx="624" cy="208" rx="6" ry="6" fill="#000000" stroke="none" />
</g>
</svg>
